<svg baseProfile="full" height="50" version="1.1" viewBox="0 0 78 50" width="78" xmlns="http://www.w3.org/2000/svg" xmlns:ev="http://www.w3.org/2001/xml-events" xmlns:xlink="http://www.w3.org/1999/xlink"><defs /><g transform="translate(1.174083769633512, 6)"><path d="M2.7356020942408374 37.50261780104712Q2.7356020942408374 36.955497382198956 2.984293193717277 36.50785340314137Q3.232984293193717 36.06020942408377 3.8298429319371725 35.46335078534032Q4.973821989528796 34.41884816753927 5.321989528795811 33.946335078534034Q5.670157068062827 33.473821989528794 5.844240837696335 32.702879581151834Q6.018324607329842 31.93193717277487 6.465968586387434 29.445026178010473L9.5 11.738219895287958Q9.698952879581151 10.494764397905762 11.215968586387433 9.251308900523563Q12.732984293193716 8.007853403141365 13.926701570680628 8.007853403141365Q14.473821989528794 8.007853403141365 14.473821989528794 8.256544502617803Q14.473821989528794 8.405759162303667 14.001308900523558 9.102094240837697Q13.528795811518323 9.798429319371728 13.280104712041885 11.43979057591623L11.787958115183246 20.93979057591623Q12.484293193717276 21.089005235602095 13.976439790575915 21.089005235602095Q16.363874345549736 21.089005235602095 18.229057591623032 19.969895287958117Q20.094240837696333 18.850785340314136 21.13874345549738 16.910994764397905Q22.183246073298427 14.971204188481678 22.183246073298427 12.583769633507856Q22.183246073298427 9.201570680628276 20.094240837696333 7.435863874345552Q18.00523560209424 5.670157068062828 14.125654450261779 5.670157068062828Q11.141361256544503 5.670157068062828 8.604712041884817 6.764397905759164Q6.0680628272251305 7.858638743455501 4.1282722513089 10.04712041884817Q3.6806282722513086 10.643979057591626 3.4319371727748686 10.867801047120421Q3.183246073298429 11.091623036649217 2.8848167539267013 11.091623036649217Q2.5863874345549736 11.091623036649217 2.5863874345549736 10.7434554973822L2.636125654450262 10.196335078534034Q3.083769633507853 8.356020942408378 4.874345549738219 6.689790575916231Q6.664921465968586 5.023560209424083 9.5 4.0039267015706805Q12.335078534031412 2.984293193717278 15.717277486910994 2.984293193717278Q20.44240837696335 2.984293193717278 23.277486910994764 5.098167539267017Q26.112565445026178 7.212041884816756 26.112565445026178 10.942408376963353Q26.112565445026178 14.225130890052359 23.924083769633505 17.085078534031418Q21.735602094240836 19.945026178010473 18.27879581151832 21.760471204188484Q14.821989528795811 23.575916230366495 11.141361256544503 23.874345549738223L9.698952879581151 32.52879581151832Q9.45026178010471 33.82198952879581 8.75392670157068 34.617801047120416V34.667539267015705Q9.00261780104712 34.76701570680628 9.5 34.94109947643979Q9.997382198952879 35.1151832460733 10.494764397905758 35.1151832460733Q11.091623036649214 35.1151832460733 11.713350785340314 34.84162303664922Q12.335078534031412 34.568062827225134 12.534031413612565 34.568062827225134Q12.832460732984293 34.568062827225134 12.832460732984293 34.916230366492144Q12.832460732984293 35.36387434554974 12.235602094240837 35.960732984293195Q10.345549738219894 38.0 9.201570680628272 38.0Q8.75392670157068 38.0 7.560209424083769 37.602094240837694Q5.968586387434555 37.154450261780106 5.471204188481675 37.154450261780106Q4.725130890052355 37.154450261780106 3.9293193717277486 37.57722513089006Q3.1335078534031413 38.0 2.9842931937172774 38.0Q2.7356020942408374 38.0 2.7356020942408374 37.50261780104712Z M30.041884816753928 37.50261780104712Q30.041884816753928 36.955497382198956 30.290575916230367 36.50785340314137Q30.539267015706805 36.06020942408377 31.13612565445026 35.46335078534032Q32.28010471204188 34.41884816753927 32.6282722513089 33.946335078534034Q32.97643979057592 33.473821989528794 33.15052356020942 32.702879581151834Q33.324607329842934 31.93193717277487 33.77225130890052 29.445026178010473L36.80628272251309 11.738219895287958Q37.00523560209424 10.494764397905762 38.52225130890052 9.251308900523563Q40.039267015706805 8.007853403141365 41.23298429319372 8.007853403141365Q41.78010471204188 8.007853403141365 41.78010471204188 8.256544502617803Q41.78010471204188 8.405759162303667 41.30759162303664 9.102094240837697Q40.83507853403141 9.798429319371728 40.58638743455497 11.43979057591623L39.09424083769633 20.93979057591623Q39.79057591623037 21.089005235602095 41.282722513089006 21.089005235602095Q43.67015706806282 21.089005235602095 45.53534031413612 19.969895287958117Q47.40052356020942 18.850785340314136 48.445026178010465 16.910994764397905Q49.489528795811516 14.971204188481678 49.489528795811516 12.583769633507856Q49.489528795811516 9.201570680628276 47.40052356020942 7.435863874345552Q45.31151832460733 5.670157068062828 41.431937172774866 5.670157068062828Q38.44764397905759 5.670157068062828 35.910994764397905 6.764397905759164Q33.37434554973822 7.858638743455501 31.43455497382199 10.04712041884817Q30.986910994764397 10.643979057591626 30.738219895287955 10.867801047120421Q30.489528795811516 11.091623036649217 30.19109947643979 11.091623036649217Q29.89267015706806 11.091623036649217 29.89267015706806 10.7434554973822L29.94240837696335 10.196335078534034Q30.39005235602094 8.356020942408378 32.18062827225131 6.689790575916231Q33.97120418848168 5.023560209424083 36.80628272251309 4.0039267015706805Q39.6413612565445 2.984293193717278 43.02356020942408 2.984293193717278Q47.74869109947644 2.984293193717278 50.583769633507856 5.098167539267017Q53.41884816753927 7.212041884816756 53.41884816753927 10.942408376963353Q53.41884816753927 14.225130890052359 51.230366492146594 17.085078534031418Q49.04188481675392 19.945026178010473 45.58507853403141 21.760471204188484Q42.1282722513089 23.575916230366495 38.44764397905759 23.874345549738223L37.00523560209424 32.52879581151832Q36.7565445026178 33.82198952879581 36.060209424083766 34.617801047120416V34.667539267015705Q36.30890052356021 34.76701570680628 36.80628272251309 34.94109947643979Q37.303664921465966 35.1151832460733 37.80104712041884 35.1151832460733Q38.3979057591623 35.1151832460733 39.0196335078534 34.84162303664922Q39.6413612565445 34.568062827225134 39.840314136125656 34.568062827225134Q40.138743455497384 34.568062827225134 40.138743455497384 34.916230366492144Q40.138743455497384 35.36387434554974 39.54188481675393 35.960732984293195Q37.65183246073298 38.0 36.50785340314136 38.0Q36.060209424083766 38.0 34.866492146596855 37.602094240837694Q33.274869109947645 37.154450261780106 32.77748691099477 37.154450261780106Q32.031413612565444 37.154450261780106 31.23560209424084 37.57722513089006Q30.43979057591623 38.0 30.290575916230367 38.0Q30.041884816753928 38.0 30.041884816753928 37.50261780104712Z M52.8717277486911 37.55235602094241Q52.8717277486911 36.90575916230367 53.41884816753927 36.03534031413613Q53.96596858638743 35.16492146596859 54.78664921465969 34.54319371727749Q55.60732984293194 33.92146596858639 56.353403141361255 33.92146596858639H57.49738219895288Q58.19371727748691 33.026178010471206 58.666230366492144 31.85732984293194Q59.138743455497384 30.688481675392673 59.4869109947644 28.5L62.52094240837696 10.79319371727749Q62.81937172774869 8.753926701570684 63.76439790575916 6.963350785340317Q64.70942408376963 5.172774869109951 66.59947643979058 3.332460732984295Q69.93193717277487 0.0 73.96073298429319 0.0Q74.95549738219896 0.0 75.97513089005236 0.17408376963350847Q76.99476439790575 0.34816753926701693 77.6413612565445 0.6963350785340339Q78.23821989528795 1.0445026178010508 78.23821989528795 1.2931937172774894Q78.23821989528795 1.7408376963350776 77.09424083769633 2.2879581151832475Q75.95026178010471 2.8350785340314175 75.25392670157068 2.8350785340314175Q75.05497382198953 2.8350785340314175 74.15968586387434 2.5863874345549753Q73.26439790575915 2.337696335078533 72.31937172774869 2.337696335078533Q70.57853403141361 2.337696335078533 69.03664921465969 3.5314136125654443Q68.04188481675392 4.3272251308900564 67.42015706806282 5.869109947643983Q66.79842931937172 7.410994764397909 66.35078534031413 9.798429319371728L62.67015706806283 30.589005235602095Q62.47120418848168 31.63350785340314 62.02356020942408 32.603403141361255Q61.57591623036649 33.57329842931937 60.97905759162303 34.12041884816754V34.17015706806283Q61.924083769633505 34.36910994764398 64.4109947643979 34.54319371727749Q66.8979057591623 34.717277486910994 68.29057591623037 34.717277486910994Q72.61780104712042 34.717277486910994 76.14921465968587 32.6282722513089Q76.59685863874346 32.32984293193717 76.7958115183246 32.32984293193717Q77.14397905759162 32.32984293193717 77.14397905759162 32.87696335078534Q77.14397905759162 33.82198952879581 75.7761780104712 35.04057591623037Q74.40837696335078 36.25916230366492 72.09554973821989 37.12958115183246Q69.782722513089 38.0 67.19633507853403 38.0Q65.95287958115183 38.0 62.57068062827225 37.602094240837694Q62.07329842931937 37.55235602094241 60.332460732984295 37.353403141361255Q58.59162303664922 37.154450261780106 57.19895287958115 37.154450261780106Q55.7565445026178 37.154450261780106 55.03534031413612 37.32853403141361Q54.31413612565445 37.50261780104712 53.84162303664921 37.75130890052356Q53.36910994764398 38.0 53.17015706806283 38.0Q53.02094240837696 38.0 52.946335078534034 37.85078534031413Q52.8717277486911 37.70157068062827 52.8717277486911 37.55235602094241Z " fill="rgb(0,0,0)" transform="translate(-2.5863874345549736, 0)" /></g></svg>