<svg baseProfile="full" height="50" version="1.1" viewBox="0 0 95 50" width="95" xmlns="http://www.w3.org/2000/svg" xmlns:ev="http://www.w3.org/2001/xml-events" xmlns:xlink="http://www.w3.org/1999/xlink"><defs /><g transform="translate(1.0584239130434767, 6)"><path d="M29.377717391304348 0.7228260869565233Q29.171195652173914 3.046195652173914 29.09375 5.2146739130434785Q29.016304347826086 7.383152173913043 29.016304347826086 8.570652173913043Q29.016304347826086 9.706521739130434 29.067934782608695 10.739130434782608Q29.119565217391305 11.771739130434781 29.171195652173914 12.494565217391301H27.983695652173914Q27.3125 8.467391304347824 26.125 6.169836956521737Q24.9375 3.8722826086956488 23.20788043478261 2.891304347826086Q21.47826086956522 1.9103260869565233 19.10326086956522 1.9103260869565233H17.39945652173913Q15.902173913043478 1.9103260869565233 15.127717391304348 2.1684782608695663Q14.353260869565217 2.4266304347826093 14.095108695652174 3.2010869565217384Q13.83695652173913 3.9755434782608674 13.83695652173913 5.576086956521738V31.494565217391305Q13.83695652173913 33.50815217391304 14.25 34.48913043478261Q14.66304347826087 35.47010869565217 15.850543478260871 35.77989130434783Q17.03804347826087 36.08967391304348 19.36141304347826 36.141304347826086V37.27717391304348Q17.76086956521739 37.22554347826087 15.230978260869565 37.17391304347826Q12.701086956521738 37.12228260869565 9.91304347826087 37.12228260869565Q7.692934782608695 37.12228260869565 5.576086956521739 37.17391304347826Q3.4592391304347827 37.22554347826087 1.7554347826086956 37.27717391304348V36.244565217391305Q3.407608695652174 36.141304347826086 4.233695652173913 35.83152173913044Q5.059782608695652 35.52173913043478 5.34375 34.59239130434783Q5.627717391304348 33.66304347826087 5.627717391304348 31.804347826086953V6.195652173913043Q5.627717391304348 4.285326086956523 5.34375 3.381793478260871Q5.059782608695652 2.4782608695652186 4.207880434782609 2.1426630434782616Q3.3559782608695654 1.8070652173913047 1.7554347826086956 1.7554347826086953V0.7228260869565233Q3.8722826086956523 0.7744565217391255 6.247282608695652 0.8002717391304301Q8.622282608695652 0.8260869565217348 10.945652173913043 0.8519021739130395Q13.269021739130435 0.8777173913043441 15.282608695652176 0.8777173913043441Q17.296195652173914 0.8777173913043441 18.58695652173913 0.8777173913043441Q20.96195652173913 0.8777173913043441 23.98233695652174 0.8519021739130395Q27.002717391304348 0.8260869565217348 29.377717391304348 0.7228260869565233ZM21.684782608695652 18.58695652173913Q21.684782608695652 18.58695652173913 21.684782608695652 19.103260869565215Q21.684782608695652 19.6195652173913 21.684782608695652 19.6195652173913H12.28804347826087Q12.28804347826087 19.6195652173913 12.28804347826087 19.103260869565215Q12.28804347826087 18.58695652173913 12.28804347826087 18.58695652173913ZM22.97554347826087 11.771739130434781Q22.769021739130434 14.714673913043477 22.79483695652174 16.26358695652174Q22.820652173913043 17.8125 22.820652173913043 19.103260869565215Q22.820652173913043 20.394021739130434 22.872282608695652 21.942934782608695Q22.92391304347826 23.491847826086953 23.130434782608695 26.43478260869565H21.942934782608695Q21.633152173913043 24.627717391304344 20.961956521739133 23.078804347826086Q20.29076086956522 21.529891304347824 19.0 20.574728260869563Q17.70923913043478 19.6195652173913 15.644021739130435 19.6195652173913V18.58695652173913Q17.192934782608695 18.58695652173913 18.251358695652172 17.94157608695652Q19.309782608695652 17.29619565217391 20.032608695652172 16.23777173913043Q20.755434782608695 15.179347826086953 21.168478260869563 13.991847826086953Q21.581521739130434 12.804347826086953 21.78804347826087 11.771739130434781Z M59.942934782608695 0.7228260869565233Q59.736413043478265 3.046195652173914 59.65896739130435 5.2146739130434785Q59.58152173913044 7.383152173913043 59.58152173913044 8.570652173913043Q59.58152173913044 9.706521739130434 59.63315217391305 10.739130434782608Q59.684782608695656 11.771739130434781 59.736413043478265 12.494565217391301H58.548913043478265Q57.877717391304344 8.467391304347824 56.690217391304344 6.169836956521737Q55.502717391304344 3.8722826086956488 53.77309782608695 2.891304347826086Q52.04347826086956 1.9103260869565233 49.66847826086956 1.9103260869565233H47.96467391304348Q46.46739130434783 1.9103260869565233 45.692934782608695 2.1684782608695663Q44.91847826086956 2.4266304347826093 44.660326086956516 3.2010869565217384Q44.40217391304348 3.9755434782608674 44.40217391304348 5.576086956521738V31.494565217391305Q44.40217391304348 33.50815217391304 44.815217391304344 34.48913043478261Q45.22826086956522 35.47010869565217 46.41576086956522 35.77989130434783Q47.60326086956522 36.08967391304348 49.92663043478261 36.141304347826086V37.27717391304348Q48.326086956521735 37.22554347826087 45.79619565217391 37.17391304347826Q43.266304347826086 37.12228260869565 40.47826086956522 37.12228260869565Q38.25815217391305 37.12228260869565 36.14130434782609 37.17391304347826Q34.02445652173913 37.22554347826087 32.32065217391305 37.27717391304348V36.244565217391305Q33.97282608695652 36.141304347826086 34.798913043478265 35.83152173913044Q35.625 35.52173913043478 35.908967391304344 34.59239130434783Q36.192934782608695 33.66304347826087 36.192934782608695 31.804347826086953V6.195652173913043Q36.192934782608695 4.285326086956523 35.908967391304344 3.381793478260871Q35.625 2.4782608695652186 34.77309782608695 2.1426630434782616Q33.921195652173914 1.8070652173913047 32.32065217391305 1.7554347826086953V0.7228260869565233Q34.4375 0.7744565217391255 36.8125 0.8002717391304301Q39.1875 0.8260869565217348 41.51086956521739 0.8519021739130395Q43.83423913043478 0.8777173913043441 45.84782608695652 0.8777173913043441Q47.861413043478265 0.8777173913043441 49.15217391304348 0.8777173913043441Q51.52717391304348 0.8777173913043441 54.547554347826086 0.8519021739130395Q57.567934782608695 0.8260869565217348 59.942934782608695 0.7228260869565233ZM52.25 18.58695652173913Q52.25 18.58695652173913 52.25 19.103260869565215Q52.25 19.6195652173913 52.25 19.6195652173913H42.85326086956522Q42.85326086956522 19.6195652173913 42.85326086956522 19.103260869565215Q42.85326086956522 18.58695652173913 42.85326086956522 18.58695652173913ZM53.54076086956522 11.771739130434781Q53.33423913043478 14.714673913043477 53.360054347826086 16.26358695652174Q53.38586956521739 17.8125 53.38586956521739 19.103260869565215Q53.38586956521739 20.394021739130434 53.4375 21.942934782608695Q53.48913043478261 23.491847826086953 53.69565217391305 26.43478260869565H52.50815217391305Q52.19836956521739 24.627717391304344 51.52717391304348 23.078804347826086Q50.85597826086956 21.529891304347824 49.565217391304344 20.574728260869563Q48.274456521739125 19.6195652173913 46.20923913043478 19.6195652173913V18.58695652173913Q47.75815217391305 18.58695652173913 48.81657608695652 17.94157608695652Q49.875 17.29619565217391 50.59782608695652 16.23777173913043Q51.32065217391305 15.179347826086953 51.733695652173914 13.991847826086953Q52.14673913043478 12.804347826086953 52.35326086956522 11.771739130434781Z M81.62771739130434 0.0Q85.03532608695653 0.0 87.2296195652174 1.0067934782608674Q89.42391304347827 2.013586956521735 91.12771739130434 3.3559782608695627Q92.16032608695653 4.130434782608695 92.70244565217392 3.5366847826086953Q93.24456521739131 2.9429347826086953 93.45108695652175 0.7228260869565233H94.63858695652175Q94.53532608695653 2.736413043478258 94.48369565217392 5.601902173913041Q94.43206521739131 8.467391304347824 94.43206521739131 13.217391304347824H93.24456521739131Q92.98641304347827 10.842391304347824 92.5733695652174 9.164402173913041Q92.16032608695653 7.486413043478258 91.4375 6.1956521739130395Q90.71467391304347 4.904891304347821 89.37228260869566 3.8722826086956488Q88.08152173913044 2.58152173913043 86.37771739130434 1.9619565217391255Q84.67391304347827 1.3423913043478208 82.81521739130434 1.3423913043478208Q80.02717391304347 1.3423913043478208 78.06521739130434 2.813858695652172Q76.10326086956522 4.285326086956523 74.8899456521739 6.815217391304348Q73.67663043478261 9.345108695652172 73.1086956521739 12.520380434782608Q72.54076086956522 15.695652173913043 72.54076086956522 19.103260869565215Q72.54076086956522 22.5625 73.13451086956522 25.737771739130434Q73.72826086956522 28.913043478260867 74.99320652173913 31.391304347826086Q76.25815217391305 33.869565217391305 78.27173913043478 35.315217391304344Q80.28532608695653 36.76086956521739 83.02173913043478 36.76086956521739Q84.72554347826087 36.76086956521739 86.45516304347827 36.11548913043478Q88.18478260869566 35.47010869565217 89.42391304347827 34.23097826086956Q91.4375 32.682065217391305 92.16032608695653 30.38451086956522Q92.88315217391305 28.08695652173913 93.24456521739131 24.266304347826086H94.43206521739131Q94.43206521739131 29.171195652173914 94.48369565217392 32.191576086956516Q94.53532608695653 35.211956521739125 94.63858695652175 37.27717391304348H93.45108695652175Q93.24456521739131 35.057065217391305 92.75407608695653 34.48913043478261Q92.26358695652173 33.921195652173914 91.12771739130434 34.64402173913043Q89.21739130434783 35.98641304347826 87.07472826086956 36.993206521739125Q84.93206521739131 38.0 81.57608695652173 38.0Q76.10326086956522 38.0 71.99864130434783 35.77989130434783Q67.89402173913044 33.55978260869565 65.62228260869566 29.377717391304344Q63.35054347826087 25.19565217391304 63.35054347826087 19.30978260869565Q63.35054347826087 13.527173913043477 65.69972826086956 9.190217391304348Q68.04891304347827 4.853260869565219 72.15353260869566 2.4266304347826093Q76.25815217391305 0.0 81.62771739130434 0.0Z " fill="rgb(0,0,0)" transform="translate(-1.7554347826086956, 0)" /></g></svg>