<svg baseProfile="full" height="28" version="1.1" viewBox="0 0 199 28" width="199" xmlns="http://www.w3.org/2000/svg" xmlns:ev="http://www.w3.org/2001/xml-events" xmlns:xlink="http://www.w3.org/1999/xlink"><defs /><g><path d="M14.817120622568094 27.782101167315176Q13.58236057068742 24.767833981841765 12.365758754863815 21.78988326848249Q11.149156939040209 18.811932555123217 9.914396887159533 15.833981841763944Q9.623865110246435 15.143968871595332 9.169909208819716 13.891050583657588Q8.715953307392997 12.638132295719846 8.225680933852141 11.00389105058366Q7.735408560311285 9.369649805447473 7.335927367055772 7.626459143968873Q7.408560311284047 9.660181582360572 7.444876783398184 11.457846952010378Q7.481193255512323 13.255512321660182 7.444876783398184 14.889753566796369Q7.444876783398184 15.688715953307394 7.444876783398184 16.523994811932557Q7.444876783398184 17.35927367055772 7.426718547341116 18.176394293125814Q7.408560311284047 18.993514915693908 7.408560311284047 19.810635538261998Q7.408560311284047 20.627756160830092 7.408560311284047 21.463035019455255Q7.408560311284047 22.443579766536967 7.354085603112841 23.351491569390404Q7.299610894941635 24.259403372243842 7.22697795071336 24.731517509727627Q7.844357976653697 24.658884565499353 8.734111543450066 24.640726329442284Q9.623865110246435 24.622568093385215 9.987029831387808 24.622568093385215V27.418936446173802H1.706874189364462V25.02204928664073Q2.542153047989624 24.985732814526592 3.1050583657587554 24.804150453955906Q3.667963683527886 24.622568093385215 3.976653696498055 23.96887159533074Q4.285343709468224 23.315175097276267 4.285343709468224 21.862516212710766L4.503242542153048 7.953307392996109Q4.539559014267186 6.972762645914397 4.575875486381324 6.06485084306096Q4.612191958495461 5.156939040207522 4.648508430609598 4.6848249027237365Q4.067444876783399 4.721141374837874 3.1958495460440988 4.739299610894943Q2.324254215304799 4.757457846952011 1.9247730220492867 4.793774319066149V1.9974059662775616H9.95071335927367L15.434500648508433 16.051880674448768Q15.761348897535669 16.88715953307393 16.16083009079118 17.994811932555123Q16.560311284046694 19.10246433203632 16.92347600518807 20.137483787289238Q17.286640726329445 21.172503242542156 17.46822308690013 21.78988326848249H17.50453955901427Q17.976653696498055 20.51880674448768 18.376134889753565 19.320363164721144Q18.77561608300908 18.121919584954604 19.21141374837873 16.996108949416346Q20.627756160830092 13.219195849546045 22.025940337224384 9.478599221789885Q23.42412451361868 5.738002594033723 24.84046692607004 1.9974059662775616H33.2295719844358V4.394293125810634Q32.43060959792478 4.430609597924775 31.81322957198444 4.612191958495462Q31.1958495460441 4.793774319066149 30.887159533073934 5.429312581063554Q30.578469520103763 6.06485084306096 30.6147859922179 7.553826199740598L31.159533073929964 21.463035019455255Q31.23216601815824 22.443579766536967 31.159533073929964 23.351491569390404Q31.08690012970169 24.259403372243842 31.014267185473415 24.731517509727627Q31.63164721141375 24.658884565499353 32.52140077821012 24.640726329442284Q33.41115434500649 24.622568093385215 33.77431906614786 24.622568093385215V27.418936446173802H23.67833981841764V25.02204928664073Q24.513618677042803 24.985732814526592 25.112840466926073 24.804150453955906Q25.71206225680934 24.622568093385215 26.020752269779507 23.96887159533074Q26.329442282749678 23.315175097276267 26.256809338521403 21.862516212710766L25.966277561608305 14.16342412451362Q25.966277561608305 13.72762645914397 25.893644617380026 12.656290531776914Q25.82101167315175 11.584954604409859 25.766536964980546 10.295719844357977Q25.71206225680934 9.006485084306096 25.675745784695202 7.880674448767834Q25.56679636835279 8.134889753566796 25.457846952010378 8.37094682230869Q25.348897535667966 8.607003891050585 25.27626459143969 8.861219195849547L18.194552529182882 27.782101167315176Z M45.39559014267186 28.000000000000004Q42.74448767833982 28.000000000000004 40.710765239948124 26.819714656290536Q38.677042801556425 25.639429312581065 37.55123216601817 23.478599221789885Q36.4254215304799 21.317769130998705 36.4254215304799 18.37613488975357Q36.4254215304799 15.833981841763944 37.55123216601817 13.618677042801558Q38.677042801556425 11.403372243839172 40.72892347600519 10.041504539559016Q42.78080415045396 8.67963683527886 45.50453955901427 8.67963683527886Q47.029831387808045 8.67963683527886 48.482490272373546 9.097276264591441Q49.93514915693905 9.514915693904022 51.11543450064851 10.531776913099872Q52.295719844357976 11.548638132295721 53.00389105058366 13.291828793774322Q53.71206225680935 15.03501945525292 53.67574578469521 17.64980544747082L41.76394293125811 17.867704280155642Q41.76394293125811 19.828793774319067 42.25421530479896 21.39040207522698Q42.74448767833982 22.952010376134893 43.87029831387808 23.859922178988327Q44.996108949416346 24.767833981841765 46.884565499351496 24.767833981841765Q47.61089494163424 24.767833981841765 48.53696498054475 24.513618677042803Q49.463035019455255 24.259403372243842 50.425421530479895 23.660181582360572Q51.38780804150454 23.060959792477306 52.2230869001297 22.044098573281453L53.857328145265896 23.56939040207523Q52.549935149156944 25.42153047989624 51.060959792477306 26.383916990920884Q49.57198443579767 27.346303501945528 48.101167315175104 27.673151750972764Q46.630350194552534 28.000000000000004 45.39559014267186 28.000000000000004ZM41.98184176394293 15.325551232166019H48.66407263294423Q48.627756160830096 13.800259403372245 48.24643320363165 12.910505836575876Q47.865110246433204 12.020752269779509 47.21141374837873 11.621271076523996Q46.55771725032426 11.221789883268482 45.686121919584956 11.221789883268482Q44.088197146562905 11.221789883268482 43.18028534370947 12.365758754863814Q42.27237354085604 13.509727626459146 41.98184176394293 15.325551232166019Z M55.74578469520104 25.058365758754867Q56.76264591439689 25.058365758754867 57.21660181582361 24.658884565499356Q57.670557717250325 24.259403372243842 57.779507133592745 23.514915693904022Q57.88845654993516 22.770428015564203 57.88845654993516 21.82619974059663V6.900129701686122Q57.88845654993516 6.246433203631646 57.924773022049294 5.392996108949417Q57.96108949416343 4.539559014267187 58.033722438391706 3.7405966277561618Q57.4526588845655 3.776913099870299 56.67185473411155 3.795071335927368Q55.891050583657595 3.8132295719844365 55.49156939040208 3.849546044098574V1.0894941634241242Q57.19844357976654 1.0894941634241242 58.34241245136187 0.9079118028534374Q59.4863813229572 0.7263294422827506 60.15823605706875 0.4721141374837874Q60.83009079118029 0.21789883268482413 61.08430609597925 0.0H63.045395590142675V21.571984435797667Q63.045395590142675 22.08041504539559 63.00907911802854 23.006485084306096Q62.9727626459144 23.932555123216602 62.900129701686126 24.767833981841765Q63.51750972762646 24.69520103761349 64.20752269779507 24.67704280155642Q64.8975356679637 24.658884565499353 65.26070038910507 24.658884565499353V27.418936446173802H55.74578469520104Z M74.41245136186771 27.527885862516214 68.674448767834 14.926070038910506Q68.27496757457848 14.01815823605707 68.11154345006486 13.546044098573283Q67.94811932555123 13.073929961089496 67.89364461738003 12.728923476005189Q67.83916990920882 12.383916990920882 67.73022049286641 11.948119325551232L66.38651102464333 12.020752269779509V9.260700389105057H74.8845654993515V11.584954604409859Q74.12191958495461 11.621271076523996 73.86770428015565 12.020752269779507Q73.61348897535669 12.42023346303502 73.68612191958496 13.055771725032425Q73.75875486381324 13.691309987029832 74.0129701686122 14.417639429312581L75.90142671854736 19.066147859922182Q76.19195849546045 19.756160830090792 76.48249027237355 20.482490272373543Q76.77302204928665 21.208819714656293 77.06355382619975 21.93514915693904H77.09987029831389Q77.39040207522699 21.172503242542156 77.66277561608302 20.409857328145268Q77.93514915693905 19.64721141374838 78.18936446173801 18.884565499351496L79.75097276264592 14.45395590142672Q80.07782101167317 13.546044098573283 80.35019455252919 13.00129701686122Q80.62256809338523 12.456549935149157 80.94941634241246 11.875486381322958L78.69779507133593 12.020752269779509V9.260700389105057H85.59792477302206V11.584954604409859Q84.7626459143969 11.730220492866408 84.10894941634243 12.511024643320365Q83.45525291828795 13.29182879377432 82.98313878080415 14.254215304798963Q82.51102464332037 15.216601815823607 82.22049286640727 15.942931258106357L77.57198443579767 27.527885862516214Z M95.8028534370947 28.000000000000004Q93.15175097276266 28.000000000000004 91.11802853437095 26.819714656290536Q89.08430609597926 25.639429312581065 87.95849546044099 23.478599221789885Q86.83268482490273 21.317769130998705 86.83268482490273 18.37613488975357Q86.83268482490273 15.833981841763944 87.95849546044099 13.618677042801558Q89.08430609597926 11.403372243839172 91.13618677042803 10.041504539559016Q93.1880674448768 8.67963683527886 95.91180285343711 8.67963683527886Q97.43709468223088 8.67963683527886 98.88975356679637 9.097276264591441Q100.34241245136188 9.514915693904022 101.52269779507134 10.531776913099872Q102.70298313878081 11.548638132295721 103.4111543450065 13.291828793774322Q104.11932555123218 15.03501945525292 104.08300907911804 17.64980544747082L92.17120622568095 17.867704280155642Q92.17120622568095 19.828793774319067 92.6614785992218 21.39040207522698Q93.15175097276266 22.952010376134893 94.27756160830091 23.859922178988327Q95.40337224383919 24.767833981841765 97.29182879377433 24.767833981841765Q98.01815823605708 24.767833981841765 98.94422827496759 24.513618677042803Q99.8702983138781 24.259403372243842 100.83268482490274 23.660181582360572Q101.79507133592737 23.060959792477306 102.63035019455253 22.044098573281453L104.26459143968873 23.56939040207523Q102.95719844357978 25.42153047989624 101.46822308690014 26.383916990920884Q99.97924773022051 27.346303501945528 98.50843060959794 27.673151750972764Q97.03761348897537 28.000000000000004 95.8028534370947 28.000000000000004ZM92.38910505836577 15.325551232166019H99.07133592736706Q99.03501945525292 13.800259403372245 98.65369649805447 12.910505836575876Q98.27237354085604 12.020752269779509 97.61867704280156 11.621271076523996Q96.96498054474709 11.221789883268482 96.0933852140078 11.221789883268482Q94.49546044098574 11.221789883268482 93.5875486381323 12.365758754863814Q92.67963683527887 13.509727626459146 92.38910505836577 15.325551232166019Z M113.9247730220493 28.000000000000004Q112.83527885862517 28.000000000000004 111.81841763942933 27.74578469520104Q110.80155642023347 27.491569390402077 110.00259403372245 26.7833981841764Q109.20363164721142 26.075226977950717 108.73151750972764 24.695201037613494Q108.25940337224385 23.315175097276267 108.25940337224385 21.027237354085607L108.33203631647213 12.27496757457847H105.86251621271077V9.260700389105057Q106.98832684824903 9.22438391699092 108.04150453955901 8.498054474708171Q109.09468223086901 7.771725032425422 109.83916990920883 6.609597924773023Q110.58365758754864 5.4474708171206245 110.8378728923476 4.17639429312581H113.52529182879378L113.48897535667965 9.260700389105057H118.1011673151751V12.057068741893646L113.48897535667965 12.166018158236058L113.45265888456551 21.09987029831388Q113.45265888456551 21.93514915693904 113.61608300907912 22.752269779507134Q113.77950713359274 23.56939040207523 114.25162127107653 24.09597924773022Q114.72373540856032 24.622568093385215 115.63164721141376 24.622568093385215Q116.14007782101169 24.622568093385215 117.02983138780806 24.25940337224384Q117.91958495460442 23.896238651102465 118.93644617380028 22.443579766536967L120.67963683527887 24.077821011673155Q119.69909208819716 25.530479896238653 118.64591439688718 26.329442282749678Q117.59273670557718 27.128404669260703 116.63035019455253 27.491569390402077Q115.6679636835279 27.85473411154345 114.94163424124514 27.927367055771725Q114.21530479896239 28.000000000000004 113.9247730220493 28.000000000000004Z M122.05966277561609 25.02204928664073Q122.89494163424126 24.985732814526592 123.45784695201039 24.804150453955906Q124.02075226977952 24.622568093385215 124.32944228274968 23.96887159533074Q124.63813229571986 23.315175097276267 124.63813229571986 21.862516212710766V7.953307392996109Q124.63813229571986 6.972762645914397 124.69260700389106 6.06485084306096Q124.74708171206227 5.156939040207522 124.7833981841764 4.6848249027237365Q124.20233463035021 4.721141374837874 123.33073929961091 4.739299610894943Q122.45914396887162 4.757457846952011 122.05966277561609 4.793774319066149V1.9974059662775616Q124.63813229571986 1.9610894941634243 127.21660181582362 1.9610894941634243Q129.7950713359274 1.9610894941634243 132.37354085603116 1.924773022049287Q135.56939040207524 1.8884565499351496 137.94811932555126 2.7600518806744496Q140.32684824902725 3.6316472114137497 141.61608300907915 5.447470817120623Q142.90531776913102 7.263294422827496 142.83268482490274 10.168612191958495Q142.7963683527886 11.621271076523996 142.14267185473412 13.019455252918288Q141.48897535667965 14.417639429312581 140.21789883268485 15.561608300907913Q138.94682230869003 16.705577172503244 137.02204928664074 17.431906614785994Q135.09727626459144 18.15823605706874 132.5188067444877 18.230869001297016Q131.71984435797665 18.267185473411153 131.12062256809338 18.267185473411153Q130.52140077821014 18.267185473411153 129.9040207522698 18.230869001297016V21.426718547341117Q129.9040207522698 22.443579766536967 129.86770428015564 23.351491569390404Q129.8313878080415 24.259403372243842 129.75875486381324 24.731517509727627Q130.15823605706876 24.69520103761349 130.77561608300908 24.67704280155642Q131.39299610894943 24.658884565499353 131.9922178988327 24.640726329442284Q132.59143968871598 24.622568093385215 132.84565499351493 24.622568093385215V27.418936446173802H122.05966277561609ZM129.9040207522698 15.507133592736707Q130.3035019455253 15.543450064850845 130.70298313878084 15.579766536964982Q131.10246433203633 15.61608300907912 131.53826199740598 15.61608300907912Q133.53566796368355 15.61608300907912 134.78858625162127 14.944228274967575Q136.041504539559 14.272373540856032 136.6225680933852 12.98313878080415Q137.20363164721144 11.69390402075227 137.20363164721144 9.841763942931259Q137.20363164721144 8.025940337224384 136.71335927367056 6.93644617380026Q136.22308690012972 5.846952010376135 135.46044098573282 5.320363164721142Q134.69779507133595 4.793774319066149 133.86251621271077 4.6303501945525305Q133.02723735408563 4.466926070038912 132.337224383917 4.466926070038912Q131.5745784695201 4.466926070038912 131.02983138780803 4.648508430609599Q130.48508430609598 4.830090791180286 130.1945525291829 5.447470817120623Q129.9040207522698 6.06485084306096 129.9040207522698 7.3359273670557705Z M152.45654993514916 28.000000000000004Q150.2775616083009 28.000000000000004 148.9520103761349 27.16472114137484Q147.62645914396887 26.329442282749678 147.0272373540856 24.54993514915694Q146.42801556420233 22.770428015564203 146.42801556420233 19.974059662775616V15.797665369649806Q146.42801556420233 15.143968871595332 146.46433203631648 14.2905317769131Q146.5006485084306 13.43709468223087 146.53696498054475 12.638132295719846Q145.95590142671855 12.674448767833983 145.17509727626458 12.692607003891052Q144.39429312581063 12.71076523994812 143.99481193255514 12.747081712062258V9.987029831387808H144.3579766536965Q146.60959792477303 9.987029831387808 147.91699092088197 9.623865110246433Q149.22438391699092 9.260700389105057 149.5875486381323 8.897535667963684H151.58495460440986V20.010376134889754Q151.58495460440986 22.370946822308692 152.2023346303502 23.514915693904022Q152.81971465629053 24.658884565499353 154.16342412451363 24.658884565499353Q155.1076523994812 24.658884565499353 156.07003891050584 24.132295719844358Q157.0324254215305 23.605706874189366 157.6498054474708 22.915693904020756V15.797665369649806Q157.6498054474708 15.143968871595332 157.68612191958493 14.2905317769131Q157.7224383916991 13.43709468223087 157.79507133592736 12.638132295719846Q157.21400778210116 12.674448767833983 156.43320363164722 12.692607003891052Q155.65239948119327 12.71076523994812 155.25291828793775 12.747081712062258V9.987029831387808H156.12451361867704Q157.8313878080415 9.987029831387808 159.13878080415046 9.605706874189364Q160.4461738002594 9.22438391699092 160.80933852140078 8.897535667963684H162.80674448767834V21.571984435797667Q162.80674448767834 22.08041504539559 162.77042801556422 23.006485084306096Q162.73411154345007 23.932555123216602 162.6614785992218 24.767833981841765Q163.242542153048 24.69520103761349 163.95071335927366 24.67704280155642Q164.65888456549936 24.658884565499353 165.02204928664074 24.658884565499353V27.418936446173802H158.1219195849546Q158.08560311284046 26.946822308690017 158.03112840466926 26.47470817120623Q157.97665369649806 26.002594033722442 157.9040207522698 25.530479896238653Q156.77821011673151 26.474708171206228 155.48897535667965 27.237354085603116Q154.19974059662775 28.000000000000004 152.45654993514916 28.000000000000004Z M167.38261997405968 25.058365758754867Q168.39948119325553 25.058365758754867 168.83527885862517 24.658884565499356Q169.27107652399482 24.259403372243842 169.3981841763943 23.514915693904022Q169.52529182879377 22.770428015564203 169.52529182879377 21.82619974059663V15.725032425421531Q169.52529182879377 15.071335927367057 169.5616083009079 14.254215304798963Q169.59792477302204 13.43709468223087 169.67055771725032 12.638132295719846Q169.08949416342412 12.674448767833983 168.30869001297017 12.692607003891052Q167.52788586251623 12.71076523994812 167.1284046692607 12.747081712062258V9.987029831387808H168.5810635538262Q169.99740596627757 9.987029831387808 171.17769130998704 9.623865110246433Q172.3579766536965 9.260700389105057 172.72114137483788 8.897535667963684H174.50064850843063Q174.5732814526589 9.260700389105057 174.60959792477303 10.259403372243838Q174.64591439688718 11.258106355382619 174.64591439688718 12.020752269779509Q175.62645914396887 10.82230869001297 176.49805447470817 10.095979247730222Q177.36964980544747 9.369649805447473 178.22308690012972 9.024643320363166Q179.07652399481194 8.67963683527886 179.94811932555123 8.67963683527886Q181.21919584954605 8.67963683527886 182.16342412451363 9.38780804150454Q183.1076523994812 10.09597924773022 183.1076523994812 11.69390402075227Q183.1076523994812 12.238651102464333 182.85343709468225 12.837872892347601Q182.59922178988327 13.43709468223087 182.0544747081712 13.836575875486382Q181.50972762645915 14.236057068741895 180.56549935149158 14.236057068741895Q179.83916990920883 14.236057068741895 179.07652399481196 13.800259403372245Q178.31387808041507 13.364461738002595 178.20492866407264 12.129701686121921Q177.4785992217899 12.129701686121921 176.75226977950715 12.728923476005189Q176.0259403372244 13.328145265888457 175.46303501945528 14.145265888456551Q174.90012970168613 14.962386511024645 174.6822308690013 15.652399481193257V21.571984435797667Q174.6822308690013 22.08041504539559 174.64591439688718 23.006485084306096Q174.60959792477303 23.932555123216602 174.53696498054475 24.767833981841765Q175.11802853437095 24.69520103761349 175.82619974059662 24.67704280155642Q176.53437094682232 24.658884565499353 176.8975356679637 24.658884565499353V27.418936446173802H167.38261997405968Z M184.81452658884567 25.058365758754867Q185.8313878080415 25.058365758754867 186.26718547341116 24.658884565499356Q186.7029831387808 24.259403372243842 186.83009079118028 23.514915693904022Q186.95719844357976 22.770428015564203 186.95719844357976 21.82619974059663V15.725032425421531Q186.95719844357976 15.071335927367057 186.99351491569388 14.254215304798963Q187.02983138780803 13.43709468223087 187.1024643320363 12.638132295719846Q186.5214007782101 12.674448767833983 185.74059662775616 12.692607003891052Q184.95979247730222 12.71076523994812 184.5603112840467 12.747081712062258V9.987029831387808H186.01297016861218Q187.42931258106356 9.987029831387808 188.60959792477303 9.623865110246433Q189.7898832684825 9.260700389105057 190.15304798962387 8.897535667963684H191.93255512321662Q192.0051880674449 9.260700389105057 192.041504539559 10.259403372243838Q192.07782101167317 11.258106355382619 192.07782101167317 12.020752269779509Q193.05836575875486 10.82230869001297 193.92996108949416 10.095979247730222Q194.80155642023345 9.369649805447473 195.6549935149157 9.024643320363166Q196.50843060959792 8.67963683527886 197.38002594033722 8.67963683527886Q198.65110246433204 8.67963683527886 199.5953307392996 9.38780804150454Q200.53955901426718 10.09597924773022 200.53955901426718 11.69390402075227Q200.53955901426718 12.238651102464333 200.28534370946824 12.837872892347601Q200.03112840466926 13.43709468223087 199.4863813229572 13.836575875486382Q198.94163424124514 14.236057068741895 197.99740596627757 14.236057068741895Q197.27107652399482 14.236057068741895 196.50843060959795 13.800259403372245Q195.74578469520105 13.364461738002595 195.63683527885863 12.129701686121921Q194.91050583657588 12.129701686121921 194.18417639429313 12.728923476005189Q193.45784695201039 13.328145265888457 192.89494163424126 14.145265888456551Q192.3320363164721 14.962386511024645 192.1141374837873 15.652399481193257V21.571984435797667Q192.1141374837873 22.08041504539559 192.07782101167317 23.006485084306096Q192.041504539559 23.932555123216602 191.96887159533074 24.767833981841765Q192.54993514915694 24.69520103761349 193.2581063553826 24.67704280155642Q193.9662775616083 24.658884565499353 194.32944228274968 24.658884565499353V27.418936446173802H184.81452658884567Z " fill="rgb(0,0,0)" transform="translate(-1.706874189364462, 0)" /></g></svg>