<svg baseProfile="full" height="50" version="1.1" viewBox="0 0 97 50" width="97" xmlns="http://www.w3.org/2000/svg" xmlns:ev="http://www.w3.org/2001/xml-events" xmlns:xlink="http://www.w3.org/1999/xlink"><defs /><g transform="translate(1.162857142857142, 6)"><path d="M2.7142857142857144 38.0V34.417142857142856Q3.9628571428571426 34.362857142857145 4.804285714285714 34.09142857142857Q5.645714285714286 33.82 6.107142857142858 32.84285714285714Q6.5685714285714285 31.865714285714287 6.5685714285714285 29.694285714285712V8.902857142857144Q6.5685714285714285 7.4371428571428595 6.65 6.080000000000002Q6.731428571428571 4.722857142857144 6.785714285714286 4.017142857142858Q5.917142857142857 4.071428571428569 4.614285714285714 4.098571428571429Q3.3114285714285714 4.125714285714288 2.7142857142857144 4.18V0.0H18.294285714285714V3.5828571428571436Q17.099999999999998 3.6371428571428552 16.23142857142857 3.9085714285714275Q15.362857142857143 4.18 14.901428571428571 5.130000000000001Q14.44 6.080000000000002 14.44 8.305714285714288V16.774285714285714H29.36857142857143V8.902857142857144Q29.36857142857143 7.4371428571428595 29.42285714285714 6.080000000000002Q29.477142857142855 4.722857142857144 29.585714285714285 4.017142857142858Q28.717142857142857 4.071428571428569 27.414285714285715 4.098571428571429Q26.111428571428572 4.125714285714288 25.514285714285712 4.18V0.0H41.09428571428571V3.5828571428571436Q39.9 3.6371428571428552 39.03142857142857 3.9085714285714275Q38.16285714285714 4.18 37.70142857142857 5.130000000000001Q37.24 6.080000000000002 37.24 8.305714285714288V29.097142857142856Q37.24 30.562857142857144 37.18571428571428 31.92Q37.13142857142857 33.277142857142856 37.02285714285714 33.98285714285714Q37.89142857142857 33.87428571428571 39.221428571428575 33.847142857142856Q40.55142857142857 33.82 41.09428571428571 33.82V38.0H25.514285714285712V34.417142857142856Q26.762857142857143 34.362857142857145 27.604285714285716 34.09142857142857Q28.445714285714285 33.82 28.90714285714286 32.84285714285714Q29.36857142857143 31.865714285714287 29.36857142857143 29.694285714285712V20.900000000000002L14.44 21.062857142857144V29.097142857142856Q14.44 30.562857142857144 14.385714285714286 31.92Q14.331428571428571 33.277142857142856 14.222857142857142 33.98285714285714Q15.09142857142857 33.87428571428571 16.42142857142857 33.847142857142856Q17.751428571428573 33.82 18.294285714285714 33.82V38.0Z M74.58857142857143 12.26857142857143Q74.58857142857143 9.337142857142858 73.77428571428571 7.41Q72.96 5.482857142857142 71.46714285714285 4.532857142857143Q69.97428571428571 3.5828571428571436 67.91142857142857 3.6371428571428552H65.30571428571429V29.097142857142856Q65.30571428571429 30.562857142857144 65.25142857142856 31.92Q65.19714285714285 33.277142857142856 65.08857142857143 33.98285714285714Q66.01142857142857 33.87428571428571 67.44999999999999 33.847142857142856Q68.88857142857142 33.82 69.43142857142857 33.82V38.0H53.58V34.417142857142856Q54.82857142857142 34.362857142857145 55.669999999999995 34.09142857142857Q56.51142857142857 33.82 56.97285714285714 32.84285714285714Q57.43428571428571 31.865714285714287 57.43428571428571 29.694285714285712V3.691428571428574H54.93714285714285Q51.84285714285714 3.7457142857142856 50.05142857142857 5.80857142857143Q48.26 7.871428571428574 48.26 12.26857142857143H44.677142857142854L44.94857142857143 0.0H77.84571428571428L78.17142857142858 12.26857142857143Z M97.38857142857142 3.5828571428571436Q96.19428571428571 3.6371428571428552 95.32571428571428 3.9085714285714275Q94.45714285714286 4.18 93.99571428571429 5.130000000000001Q93.53428571428572 6.080000000000002 93.53428571428572 8.305714285714288V29.097142857142856Q93.53428571428572 30.562857142857144 93.48 31.92Q93.42571428571429 33.277142857142856 93.31714285714285 33.98285714285714Q94.18571428571428 33.87428571428571 95.5157142857143 33.847142857142856Q96.8457142857143 33.82 97.38857142857142 33.82V38.0H81.80857142857143V34.417142857142856Q83.05714285714286 34.362857142857145 83.89857142857144 34.09142857142857Q84.74000000000001 33.82 85.20142857142858 32.84285714285714Q85.66285714285715 31.865714285714287 85.66285714285715 29.694285714285712V8.902857142857144Q85.66285714285715 7.4371428571428595 85.74428571428572 6.080000000000002Q85.82571428571428 4.722857142857144 85.88000000000001 4.017142857142858Q85.01142857142858 4.071428571428569 83.70857142857143 4.098571428571429Q82.40571428571428 4.125714285714288 81.80857142857143 4.18V0.0H97.38857142857142Z " fill="rgb(0,0,0)" transform="translate(-2.7142857142857144, 0)" /></g></svg>